<?xml version="1.0" encoding="us-ascii" standalone="no"?><svg xmlns="http://www.w3.org/2000/svg" xmlns:xlink="http://www.w3.org/1999/xlink" contentStyleType="text/css" height="540px" preserveAspectRatio="none" style="width:377px;height:540px;background:#FFFFFF;" version="1.1" viewBox="0 0 377 540" width="377px" zoomAndPan="magnify"><defs/><g><text fill="#000000" font-family="sans-serif" font-size="14" font-weight="bold" lengthAdjust="spacing" textLength="163" x="100.25" y="23.5352">High Level Data Model</text><!--entity site--><g id="elem_site"><rect fill="#F1F1F1" height="36.4883" rx="2.5" ry="2.5" style="stroke:#181818;stroke-width:0.5;" width="131" x="182" y="44.4883"/><text fill="#000000" font-family="sans-serif" font-size="14" lengthAdjust="spacing" textLength="111" x="192" y="68.0234">eCommerce Site</text></g><!--entity customer--><g id="elem_customer"><rect fill="#F1F1F1" height="36.4883" rx="2.5" ry="2.5" style="stroke:#181818;stroke-width:0.5;" width="87" x="147" y="157.9783"/><text fill="#000000" font-family="sans-serif" font-size="14" lengthAdjust="spacing" textLength="67" x="157" y="181.5134">Customer</text></g><!--entity catalog--><g id="elem_catalog"><rect fill="#F1F1F1" height="36.4883" rx="2.5" ry="2.5" style="stroke:#181818;stroke-width:0.5;" width="73" x="269" y="157.9783"/><text fill="#000000" font-family="sans-serif" font-size="14" lengthAdjust="spacing" textLength="53" x="279" y="181.5134">Catalog</text></g><!--entity product--><g id="elem_product"><rect fill="#F1F1F1" height="36.4883" rx="2.5" ry="2.5" style="stroke:#181818;stroke-width:0.5;" width="73" x="269" y="271.4683"/><text fill="#000000" font-family="sans-serif" font-size="14" lengthAdjust="spacing" textLength="53" x="279" y="295.0034">Product</text></g><!--entity sku--><g id="elem_sku"><rect fill="#F1F1F1" height="36.4883" rx="2.5" ry="2.5" style="stroke:#181818;stroke-width:0.5;" width="104" x="235.5" y="384.9483"/><text fill="#000000" font-family="sans-serif" font-size="14" lengthAdjust="spacing" textLength="84" x="245.5" y="408.4834">Product SKU</text></g><!--entity cart--><g id="elem_cart"><rect fill="#F1F1F1" height="36.4883" rx="2.5" ry="2.5" style="stroke:#181818;stroke-width:0.5;" width="49" x="176" y="271.4683"/><text fill="#000000" font-family="sans-serif" font-size="14" lengthAdjust="spacing" textLength="29" x="186" y="295.0034">Cart</text></g><!--entity order--><g id="elem_order"><rect fill="#F1F1F1" height="36.4883" rx="2.5" ry="2.5" style="stroke:#181818;stroke-width:0.5;" width="60" x="65.5" y="271.4683"/><text fill="#000000" font-family="sans-serif" font-size="14" lengthAdjust="spacing" textLength="40" x="75.5" y="295.0034">Order</text></g><!--entity payment--><g id="elem_payment"><rect fill="#F1F1F1" height="36.4883" rx="2.5" ry="2.5" style="stroke:#181818;stroke-width:0.5;" width="177" x="7" y="384.9483"/><text fill="#000000" font-family="sans-serif" font-size="14" lengthAdjust="spacing" textLength="157" x="17" y="408.4834">Payment Authorization</text></g><!--entity inventory--><g id="elem_inventory"><rect fill="#F1F1F1" height="36.4883" rx="2.5" ry="2.5" style="stroke:#181818;stroke-width:0.5;" width="84" x="245.5" y="498.4383"/><text fill="#000000" font-family="sans-serif" font-size="14" lengthAdjust="spacing" textLength="64" x="255.5" y="521.9734">Inventory</text></g><!--link site to catalog--><g id="link_site_catalog"><path d="M256.56,81.1483 C267.4,101.9783 282.6516,131.2951 293.5416,152.2351 " fill="none" id="site-to-catalog" style="stroke:#181818;stroke-width:1.0;"/><polygon fill="#181818" points="296.31,157.5583,295.7062,147.7279,294.003,153.1223,288.6087,151.4191,296.31,157.5583" style="stroke:#181818;stroke-width:1.0;"/><text fill="#000000" font-family="sans-serif" font-size="13" lengthAdjust="spacing" textLength="63" x="280.97" y="124.5466">1 to many</text></g><!--link site to customer--><g id="link_site_customer"><path d="M220.12,81.2783 C210.28,89.1083 200.21,99.2283 194.5,110.9783 C187.42,125.5483 186.6074,138.2461 187.6474,151.6961 " fill="none" id="site-to-customer" style="stroke:#181818;stroke-width:1.0;"/><polygon fill="#181818" points="188.11,157.6783,191.4043,148.3967,187.7245,152.6932,183.4281,149.0134,188.11,157.6783" style="stroke:#181818;stroke-width:1.0;"/><text fill="#000000" font-family="sans-serif" font-size="13" lengthAdjust="spacing" textLength="63" x="195.5" y="124.5466">1 to many</text></g><!--link customer to order--><g id="link_customer_order"><path d="M156.77,194.7383 C144.38,202.5083 131.06,212.5883 121.5,224.4683 C110.41,238.2483 105.1179,251.6033 101.2279,265.4033 " fill="none" id="customer-to-order" style="stroke:#181818;stroke-width:1.0;"/><polygon fill="#181818" points="99.6,271.1783,105.8918,263.6011,100.9566,266.3658,98.1918,261.4306,99.6,271.1783" style="stroke:#181818;stroke-width:1.0;"/><text fill="#000000" font-family="sans-serif" font-size="13" lengthAdjust="spacing" textLength="63" x="122.5" y="238.0366">1 to many</text></g><!--link customer to cart--><g id="link_customer_cart"><path d="M192.06,194.6383 C193.93,215.4583 196.5032,244.1323 198.3832,265.0623 " fill="none" id="customer-to-cart" style="stroke:#181818;stroke-width:1.0;"/><polygon fill="#181818" points="198.92,271.0383,202.0988,261.7165,198.4727,266.0583,194.1309,262.4322,198.92,271.0383" style="stroke:#181818;stroke-width:1.0;"/><text fill="#000000" font-family="sans-serif" font-size="13" lengthAdjust="spacing" textLength="37" x="197.1" y="238.0366">1 to 1</text></g><!--link cart to sku--><g id="link_cart_sku"><path d="M203.53,308.4283 C206.56,322.1583 212.27,341.1083 222.5,354.9483 C231.2,366.7383 238.7011,373.4799 250.4211,381.2599 " fill="none" id="cart-to-sku" style="stroke:#181818;stroke-width:1.0;"/><polygon fill="#181818" points="255.42,384.5783,250.134,376.2682,251.2543,381.813,245.7095,382.9333,255.42,384.5783" style="stroke:#181818;stroke-width:1.0;"/><text fill="#000000" font-family="sans-serif" font-size="13" lengthAdjust="spacing" textLength="63" x="223.5" y="351.5166">1 to many</text></g><!--link sku to inventory--><g id="link_sku_inventory"><path d="M287.5,421.6183 C287.5,442.4383 287.5,471.0883 287.5,492.0183 " fill="none" id="sku-to-inventory" style="stroke:#181818;stroke-width:1.0;"/><polygon fill="#181818" points="287.5,498.0183,291.5,489.0183,287.5,493.0183,283.5,489.0183,287.5,498.0183" style="stroke:#181818;stroke-width:1.0;"/><text fill="#000000" font-family="sans-serif" font-size="13" lengthAdjust="spacing" textLength="37" x="288.5" y="465.0066">1 to 1</text></g><!--link catalog to product--><g id="link_catalog_product"><path d="M305.5,194.6383 C305.5,215.4583 305.5,244.1083 305.5,265.0383 " fill="none" id="catalog-to-product" style="stroke:#181818;stroke-width:1.0;"/><polygon fill="#181818" points="305.5,271.0383,309.5,262.0383,305.5,266.0383,301.5,262.0383,305.5,271.0383" style="stroke:#181818;stroke-width:1.0;"/><text fill="#000000" font-family="sans-serif" font-size="13" lengthAdjust="spacing" textLength="63" x="306.5" y="238.0366">1 to many</text></g><!--link product to sku--><g id="link_product_sku"><path d="M302.69,308.1283 C299.33,328.9483 294.6866,357.675 291.3066,378.605 " fill="none" id="product-to-sku" style="stroke:#181818;stroke-width:1.0;"/><polygon fill="#181818" points="290.35,384.5283,295.7337,376.2811,291.1471,379.5922,287.836,375.0057,290.35,384.5283" style="stroke:#181818;stroke-width:1.0;"/><text fill="#000000" font-family="sans-serif" font-size="13" lengthAdjust="spacing" textLength="63" x="298.58" y="351.5166">1 to many</text></g><!--link order to payment--><g id="link_order_payment"><path d="M95.5,308.1283 C95.5,328.9483 95.5,357.5983 95.5,378.5283 " fill="none" id="order-to-payment" style="stroke:#181818;stroke-width:1.0;"/><polygon fill="#181818" points="95.5,384.5283,99.5,375.5283,95.5,379.5283,91.5,375.5283,95.5,384.5283" style="stroke:#181818;stroke-width:1.0;"/><text fill="#000000" font-family="sans-serif" font-size="13" lengthAdjust="spacing" textLength="37" x="96.5" y="351.5166">1 to 1</text></g><!--SRC=[TP3F2i8m3CRlVOhWtODN3uBeGL5H41-WR64MjqQwL9XFRvTsqeBUalo-VFd3Xbk4dMdkSCGNjh3LhE54DRPAEQnOsoO8PhYXhaDN8LmDumnq3tq8Sid6zqn18x1AII48rYqraSSunnT7jQzOy3F6Fp1S3xSu_k5BSyV9sHLzPrUddMYC2aizT6WPrfxlvCnRio4RvqUIY_Vs5Iha1X6OALDAZO-0-Nmr7RM41J11f-sGiVIG74ur4SXsV-buLO8BDIPI3JyeXZsybB_BPHsocT3qsxmnbNvvobgnB_xaw_a1]--></g></svg>