<?xml version="1.0" encoding="us-ascii" standalone="no"?><svg xmlns="http://www.w3.org/2000/svg" xmlns:xlink="http://www.w3.org/1999/xlink" contentStyleType="text/css" height="945px" preserveAspectRatio="none" style="width:815px;height:945px;background:#FFFFFF;" version="1.1" viewBox="0 0 815 945" width="815px" zoomAndPan="magnify"><defs/><g><text fill="#000000" font-family="sans-serif" font-size="14" font-weight="bold" lengthAdjust="spacing" textLength="205" x="298.2284" y="23.5352">Logical Component Diagram</text><!--cluster AWS Account--><g id="cluster_AWS Account"><rect fill="none" height="648.41" rx="2.5" ry="2.5" style="stroke:#181818;stroke-width:1.0;" width="512" x="7" y="135.4783"/><text fill="#000000" font-family="sans-serif" font-size="14" font-weight="bold" lengthAdjust="spacing" textLength="93" x="216.5" y="151.0134">AWS Account</text></g><!--cluster us-east-1--><g id="cluster_us-east-1"><path d="M48.0109,189.7419 C62.4201,164.3458 76.6483,168.066 94.1091,186.5351 C108.0284,167.375 124.5108,166.7732 138.8691,186.0235 C149.8802,163.8608 171.2126,166.8805 182.8266,185.3717 C192.728,167.6939 209.1355,163.2295 222.3115,181.8054 C237.2794,157.5371 256.9681,158.7543 270.1291,183.5658 C282.0873,165.8488 296.71,164.0468 308.1053,184.1314 C319.7564,164.8385 340.1408,161.1864 351.9249,183.993 C365.3119,158.6458 385.6133,162.4984 399.9476,183.0009 C413.9354,162.506 430.3302,166.7737 441.7944,185.681 C459.0149,165.4215 477.1945,170.749 487,193.4783 C487.7334,192.5734 488.7089,192.7634 489.2049,193.7544 C508.3954,206.2045 514.8288,220.4675 492.707,236.3169 C511.1874,249.037 510.5063,268.0844 490.2781,278.5798 C505.5758,287.3413 510.9392,300.7885 494.1621,313.1533 C513.5235,328.59 513.2947,343.8507 491.7931,357.0838 C510.3454,368.6015 511.5942,380.7078 496.6235,396.3494 C511.4643,405.246 512.9859,421.1671 498.0116,431.2495 C517.7424,441.5106 521.1457,461.5754 499.8323,473.601 C516.8899,488.1448 518.7662,500.5323 497.3035,512.5767 C518.1628,525.4251 519.0841,538.0716 498.4484,552.1213 C516.9408,566.2176 512.904,583.9495 492.0624,591.699 C511.9627,599.9813 515.5123,619.1053 496.2567,631.5126 C511.8288,642.9512 511.9302,659.7852 491.5897,666.4227 C513.4374,677.8967 517.2478,697.6472 494.9787,712.3749 C506.7166,731.2579 504.5704,746.769 480,751.8883 C482.741,752.1336 482.9743,754.4762 481.6441,756.2546 C469.1183,773.8747 455.6866,774.489 442.6807,756.7841 C428.8846,778.3746 413.4107,779.2473 396.2402,760.6872 C382.2597,779.569 368.344,779.0975 355.6492,759.3366 C342.4486,783.0409 327.349,783.2188 311.4769,761.9612 C299.8884,787.566 281.1666,787.9343 266.2942,765.0191 C257.0213,783.1836 236.7774,783.9178 225.6826,767.1363 C209.7793,788.2811 193.583,788.8294 179.2018,765.5439 C163.4454,788.6975 144.6201,787.0742 133.0374,761.5831 C116.508,783.2757 101.2966,779.9826 90.0428,756.5559 C68.8245,776.8776 48.6471,775.1874 39,744.8883 C41.8449,743.6685 43.35,744.3646 43.4234,747.6248 C22.6201,735.1933 23.2729,718.2786 44.5484,707.0126 C27.2712,698.7973 22.9088,681.1395 38.8215,668.0463 C23.4187,654.9863 21.8921,639.6541 41.5591,629.0564 C25.2027,619.7374 23.4721,603.0149 39.7444,592.0939 C21.3613,578.6344 22.3573,565.0313 39.8059,551.6263 C20.3105,539.2103 25.6234,524.6836 42.1121,514.503 C19.3666,499.8657 23.6952,483.0278 44.5077,470.777 C25.4239,460.2546 24.2156,447.9374 42.0737,434.9083 C23.468,419.311 19.2594,404.6186 43.6042,390.5015 C28.3287,380.4822 29.0614,366.0222 43.2515,355.7042 C24.0198,345.3803 27.145,326.2401 44.5115,317.1111 C20.5092,304.6774 24.8336,287.2595 42.585,273.0022 C24.932,262.8754 23.8763,252.5563 39.9238,239.7338 C14.781,220.7651 19.4719,199.5516 46,186.4783 C48.0381,186.7143 49.135,187.5575 48.0109,189.7419 " fill="none" style="stroke:#181818;stroke-width:1.0;"/><text fill="#000000" font-family="sans-serif" font-size="14" font-weight="bold" lengthAdjust="spacing" textLength="74" x="226" y="205.0134">us-east-1</text></g><!--cluster web--><g id="cluster_web"><rect fill="none" height="119.98" rx="2.5" ry="2.5" style="stroke:#181818;stroke-width:1.0;" width="262" x="201" y="401.9583"/><rect fill="none" height="10" style="stroke:#181818;stroke-width:1.0;" width="15" x="443" y="406.9583"/><rect fill="none" height="2" style="stroke:#181818;stroke-width:1.0;" width="4" x="441" y="408.9583"/><rect fill="none" height="2" style="stroke:#181818;stroke-width:1.0;" width="4" x="441" y="412.9583"/><text fill="#000000" font-family="sans-serif" font-size="14" font-weight="bold" lengthAdjust="spacing" textLength="132" x="266" y="428.4934">S3 Website Bucket</text></g><!--cluster 3rd Party SaaS--><g id="cluster_3rd Party SaaS"><path d="M420.7229,818.3267 C426.5578,808.4187 436.5119,807.653 443.3941,817.1001 C450.8712,805.1907 459.4875,802.6859 469.5109,814.2695 C477.5985,802.1506 486.6715,802.3732 493.8454,815.1621 C501.0195,803.7461 513.0981,802.2887 521.4112,813.7921 C526.1541,800.1228 538.0681,801.3528 545.5305,810.976 C551.2215,799.4694 562.903,799.466 569.4476,810.0519 C576.963,799.5186 589.8994,799.2209 596.4952,811.1588 C603.7559,799.329 612.824,799.8925 621.2917,809.7807 C629.4941,798.5943 637.4865,799.207 645.2496,810.2541 C654.4933,800.584 665.6874,801.3074 670.5304,815.0134 C677.347,804.088 685.0297,800.2881 694.2891,812.5056 C703.6149,801.3009 717.1051,802.3195 721.9702,817.2332 C727.9686,805.5622 738.4227,802.9693 746.4167,815.1913 C757.8699,802.1017 772.2148,806.5061 776,822.8883 C777.7788,821.8567 779.2744,822.3799 779.2575,824.6565 C801.2723,831.2939 808.4568,850.5298 789.6345,867.1417 C805.2981,888.7213 799.6598,912.7452 769,913.8683 C771.1213,913.835 772.0897,915.0046 771.2167,917.0545 C763.3374,929.5909 756.1547,926.9027 747.8755,917.4796 C740.0207,931.6599 728.6823,931.8844 719.0505,919.4008 C713.9394,930.5108 705.0929,930.0697 697.6306,922.0309 C688.6555,934.7418 678.3652,936.1871 668.6021,922.9112 C661.0387,935.1313 652.571,932.9261 644.8096,923.1251 C637.1044,934.5877 627.8852,935.6167 619.9092,923.4101 C612.2737,936.6531 602.673,938.5971 593.1973,925.2595 C585.801,936.0229 576.4743,934.0251 571.4506,922.9021 C564.3135,935.259 550.1517,935.7495 542.9901,922.9298 C535.2845,931.4347 525.9337,929.6739 521.1207,919.5365 C513.4782,931.9047 502.0245,934.7661 493.8802,920.0411 C486.1957,930.6516 474.9698,930.5943 469.5886,917.6642 C462.7409,928.1231 451.3487,930.0355 445.2447,916.897 C429.6655,932.1632 414.1162,929.4159 409,906.8683 C410.9036,905.1814 412.6368,905.6994 413.3858,908.1055 C394.471,897.7082 390.4373,880.6399 411.1444,868.0268 C387.7631,848.3044 390.9501,831.1003 416,815.8883 C418.723,814.2105 420.322,815.507 420.7229,818.3267 " fill="none" style="stroke:#181818;stroke-width:1.0;"/><text fill="#000000" font-family="sans-serif" font-size="14" font-weight="bold" lengthAdjust="spacing" textLength="103" x="541" y="834.4234">3rd Party SaaS</text></g><!--entity dns--><g id="elem_dns"><ellipse cx="263" cy="242.4783" fill="#F1F1F1" rx="8" ry="8" style="stroke:#181818;stroke-width:0.5;"/><text fill="#000000" font-family="sans-serif" font-size="14" lengthAdjust="spacing" textLength="216" x="155" y="273.0134">ecommerce.companyname.com</text><text fill="#000000" font-family="sans-serif" font-size="14" font-style="italic" lengthAdjust="spacing" textLength="72" x="227" y="222.5252">&#171;Route53&#187;</text></g><!--entity cf--><g id="elem_cf"><rect fill="#F1F1F1" height="46.4883" rx="2.5" ry="2.5" style="stroke:#181818;stroke-width:0.5;" width="200" x="163" y="331.4783"/><rect fill="#F1F1F1" height="10" style="stroke:#181818;stroke-width:0.5;" width="15" x="343" y="336.4783"/><rect fill="#F1F1F1" height="2" style="stroke:#181818;stroke-width:0.5;" width="4" x="341" y="338.4783"/><rect fill="#F1F1F1" height="2" style="stroke:#181818;stroke-width:0.5;" width="4" x="341" y="342.4783"/><text fill="#000000" font-family="sans-serif" font-size="14" lengthAdjust="spacing" textLength="160" x="178" y="365.0134">Cloudfront Distribution</text></g><!--entity api--><g id="elem_api"><rect fill="#F1F1F1" height="46.4883" rx="2.5" ry="2.5" style="stroke:#181818;stroke-width:0.5;" width="123" x="54.5" y="448.2083"/><rect fill="#F1F1F1" height="10" style="stroke:#181818;stroke-width:0.5;" width="15" x="157.5" y="453.2083"/><rect fill="#F1F1F1" height="2" style="stroke:#181818;stroke-width:0.5;" width="4" x="155.5" y="455.2083"/><rect fill="#F1F1F1" height="2" style="stroke:#181818;stroke-width:0.5;" width="4" x="155.5" y="459.2083"/><text fill="#000000" font-family="sans-serif" font-size="14" lengthAdjust="spacing" textLength="83" x="69.5" y="481.7434">API Gateway</text></g><!--entity registry--><g id="elem_registry"><rect fill="#F1F1F1" height="62.9766" rx="2.5" ry="2.5" style="stroke:#181818;stroke-width:0.5;" width="228" x="47" y="680.9183"/><rect fill="#F1F1F1" height="10" style="stroke:#181818;stroke-width:0.5;" width="15" x="255" y="685.9183"/><rect fill="#F1F1F1" height="2" style="stroke:#181818;stroke-width:0.5;" width="4" x="253" y="687.9183"/><rect fill="#F1F1F1" height="2" style="stroke:#181818;stroke-width:0.5;" width="4" x="253" y="691.9183"/><text fill="#000000" font-family="sans-serif" font-size="14" font-style="italic" lengthAdjust="spacing" textLength="188" x="62" y="714.4534">&#171;Elastic Container Registry&#187;</text><text fill="#000000" font-family="sans-serif" font-size="14" lengthAdjust="spacing" textLength="127" x="92.5" y="730.9417">Container Registry</text></g><!--entity ms--><g id="elem_ms"><rect fill="#F1F1F1" height="62.9766" rx="2.5" ry="2.5" style="stroke:#181818;stroke-width:0.5;" width="221" x="258.5" y="557.9383"/><rect fill="#F1F1F1" height="10" style="stroke:#181818;stroke-width:0.5;" width="15" x="459.5" y="562.9383"/><rect fill="#F1F1F1" height="2" style="stroke:#181818;stroke-width:0.5;" width="4" x="457.5" y="564.9383"/><rect fill="#F1F1F1" height="2" style="stroke:#181818;stroke-width:0.5;" width="4" x="457.5" y="568.9383"/><text fill="#000000" font-family="sans-serif" font-size="14" font-style="italic" lengthAdjust="spacing" textLength="181" x="273.5" y="591.4734">&#171;Elastic Container Service&#187;</text><text fill="#000000" font-family="sans-serif" font-size="14" lengthAdjust="spacing" textLength="178" x="275" y="607.9617">eCommerce Microservices</text></g><!--entity db--><g id="elem_db"><path d="M310.5,691.4183 C310.5,681.4183 395,681.4183 395,681.4183 C395,681.4183 479.5,681.4183 479.5,691.4183 L479.5,733.3948 C479.5,743.3948 395,743.3948 395,743.3948 C395,743.3948 310.5,743.3948 310.5,733.3948 L310.5,691.4183 " fill="#F1F1F1" style="stroke:#181818;stroke-width:0.5;"/><path d="M310.5,691.4183 C310.5,701.4183 395,701.4183 395,701.4183 C395,701.4183 479.5,701.4183 479.5,691.4183 " fill="none" style="stroke:#181818;stroke-width:0.5;"/><text fill="#000000" font-family="sans-serif" font-size="14" font-style="italic" lengthAdjust="spacing" textLength="102" x="344" y="718.9534">&#171;Aurora DSQL&#187;</text><text fill="#000000" font-family="sans-serif" font-size="14" lengthAdjust="spacing" textLength="149" x="320.5" y="735.4417">eCommerce Database</text></g><!--entity assets--><g id="elem_assets"><path d="M225.5,447.4583 L225.5,495.4348 A2.5,2.5 0 0 0 228,497.9348 L414,497.9348 A2.5,2.5 0 0 0 416.5,495.4348 L416.5,454.9583 L406.5,444.9583 L228,444.9583 A2.5,2.5 0 0 0 225.5,447.4583 " fill="#F1F1F1" style="stroke:#181818;stroke-width:0.5;"/><path d="M406.5,444.9583 L406.5,452.4583 A2.5,2.5 0 0 0 409,454.9583 L416.5,454.9583 " fill="#F1F1F1" style="stroke:#181818;stroke-width:0.5;"/><text fill="#000000" font-family="sans-serif" font-size="14" lengthAdjust="spacing" textLength="171" x="235.5" y="468.4934">eCommerce Static Assets</text><text fill="#000000" font-family="sans-serif" font-size="14" lengthAdjust="spacing" textLength="83" x="235.5" y="484.9817">html, js, css.</text></g><!--entity payment--><g id="elem_payment"><rect fill="#F1F1F1" height="62.9766" rx="2.5" ry="2.5" style="stroke:#181818;stroke-width:0.5;" width="169" x="416.5" y="842.8883"/><rect fill="#F1F1F1" height="10" style="stroke:#181818;stroke-width:0.5;" width="15" x="565.5" y="847.8883"/><rect fill="#F1F1F1" height="2" style="stroke:#181818;stroke-width:0.5;" width="4" x="563.5" y="849.8883"/><rect fill="#F1F1F1" height="2" style="stroke:#181818;stroke-width:0.5;" width="4" x="563.5" y="853.8883"/><text fill="#000000" font-family="sans-serif" font-size="14" font-style="italic" lengthAdjust="spacing" textLength="72" x="460" y="876.4234">&#171;Payment&#187;</text><text fill="#000000" font-family="sans-serif" font-size="14" lengthAdjust="spacing" textLength="129" x="431.5" y="892.9117">Payment Processor</text></g><!--entity email--><g id="elem_email"><rect fill="#F1F1F1" height="62.9766" rx="2.5" ry="2.5" style="stroke:#181818;stroke-width:0.5;" width="147" x="620.5" y="842.8883"/><rect fill="#F1F1F1" height="10" style="stroke:#181818;stroke-width:0.5;" width="15" x="747.5" y="847.8883"/><rect fill="#F1F1F1" height="2" style="stroke:#181818;stroke-width:0.5;" width="4" x="745.5" y="849.8883"/><rect fill="#F1F1F1" height="2" style="stroke:#181818;stroke-width:0.5;" width="4" x="745.5" y="853.8883"/><text fill="#000000" font-family="sans-serif" font-size="14" font-style="italic" lengthAdjust="spacing" textLength="51" x="663.5" y="876.4234">&#171;Email&#187;</text><text fill="#000000" font-family="sans-serif" font-size="14" lengthAdjust="spacing" textLength="107" x="635.5" y="892.9117">Twilio Sendgrid</text></g><!--entity customer--><g id="elem_customer"><ellipse cx="212" cy="51.4883" fill="#F1F1F1" rx="8" ry="8" style="stroke:#181818;stroke-width:0.5;"/><path d="M212,59.4883 L212,86.4883 M199,67.4883 L225,67.4883 M212,86.4883 L199,101.4883 M212,86.4883 L225,101.4883 " fill="none" style="stroke:#181818;stroke-width:0.5;"/><text fill="#000000" font-family="sans-serif" font-size="14" lengthAdjust="spacing" textLength="67" x="178.5" y="116.5234">Customer</text></g><!--entity emp--><g id="elem_emp"><ellipse cx="314" cy="51.4883" fill="#F1F1F1" rx="8" ry="8" style="stroke:#181818;stroke-width:0.5;"/><path d="M314,59.4883 L314,86.4883 M301,67.4883 L327,67.4883 M314,86.4883 L301,101.4883 M314,86.4883 L327,101.4883 " fill="none" style="stroke:#181818;stroke-width:0.5;"/><text fill="#000000" font-family="sans-serif" font-size="14" lengthAdjust="spacing" textLength="66" x="281" y="116.5234">Employee</text></g><!--link dns to cf--><g id="link_dns_cf"><path d="M263,251.3983 C263,267.8883 263,306.4083 263,331.1983 " fill="none" id="dns-cf" style="stroke:#181818;stroke-width:1.0;"/></g><!--link cf to web--><g id="link_cf_web"><path d="M363.31,364.2583 C393.78,368.7983 422.11,375.6683 433,385.9583 C436.2313,389.0133 438.9834,392.4861 441.3241,396.2399 C441.9092,397.1783 442.4687,398.1343 443.0034,399.1057 C443.2708,399.5914 443.532,400.081 443.7872,400.5742 C443.9148,400.8207 444.0409,401.0682 444.1655,401.3166 C444.2278,401.4407 441.6323,396.1857 441.6938,396.3103 " fill="none" id="cf-to-web" style="stroke:#181818;stroke-width:1.0;"/><polygon fill="#181818" points="444.3512,401.6897,443.9514,391.849,442.1367,397.2069,436.7788,395.3922,444.3512,401.6897" style="stroke:#181818;stroke-width:1.0;"/></g><!--link cf to api--><g id="link_cf_api"><path d="M220.28,378.4383 C216.39,380.8583 212.58,383.3883 209,385.9583 C182.98,404.6983 160.4414,425.5545 142.3314,443.5045 " fill="none" id="cf-to-api" style="stroke:#181818;stroke-width:1.0;"/><polygon fill="#181818" points="138.07,447.7283,147.278,444.2336,141.6212,444.2085,141.6463,438.5517,138.07,447.7283" style="stroke:#181818;stroke-width:1.0;"/></g><!--link api to ms--><g id="link_api_ms"><path d="M143.07,494.8983 C160.92,508.8083 185.28,526.1983 209,537.9383 C224.53,545.6283 235.8334,550.4677 252.7134,556.4377 " fill="none" id="api-to-ms" style="stroke:#181818;stroke-width:1.0;"/><polygon fill="#181818" points="258.37,558.4383,251.2188,551.6663,253.6561,556.7711,248.5513,559.2085,258.37,558.4383" style="stroke:#181818;stroke-width:1.0;"/></g><!--link ms to registry--><g id="link_ms_registry"><path d="M315.97,621.2683 C284.68,639.4683 250.3968,659.4121 219.1168,677.6021 " fill="none" id="ms-to-registry" style="stroke:#181818;stroke-width:1.0;"/><polygon fill="#181818" points="213.93,680.6183,223.7209,679.5518,218.2523,678.1048,219.6993,672.6361,213.93,680.6183" style="stroke:#181818;stroke-width:1.0;"/></g><!--link ms to db--><g id="link_ms_db"><path d="M375.63,621.2683 C379.57,639.6083 383.2906,656.9119 387.2106,675.1719 " fill="none" id="ms-to-db" style="stroke:#181818;stroke-width:1.0;"/><polygon fill="#181818" points="388.47,681.0383,390.4918,671.3992,387.4205,676.1497,382.6701,673.0783,388.47,681.0383" style="stroke:#181818;stroke-width:1.0;"/></g><!--link customer to dns--><g id="link_customer_dns"><path d="M224.09,119.9683 C236.22,157.8583 252.1879,207.7349 258.6879,228.0049 " fill="none" id="customer-to-dns" style="stroke:#181818;stroke-width:1.0;"/><polygon fill="#181818" points="260.52,233.7183,261.5808,223.9267,258.9932,228.9571,253.9628,226.3696,260.52,233.7183" style="stroke:#181818;stroke-width:1.0;"/></g><!--link emp to dns--><g id="link_emp_dns"><path d="M301.91,119.9683 C289.78,157.8583 273.8121,207.7349 267.3121,228.0049 " fill="none" id="emp-to-dns" style="stroke:#181818;stroke-width:1.0;"/><polygon fill="#181818" points="265.48,233.7183,272.0372,226.3696,267.0068,228.9571,264.4192,223.9267,265.48,233.7183" style="stroke:#181818;stroke-width:1.0;"/></g><!--link ms to payment--><g id="link_ms_payment"><path d="M436.08,621.3883 C459.66,635.9183 483.6,655.6783 497,680.9183 C524.27,732.2783 517.4848,796.8424 509.5948,836.7124 " fill="none" id="ms-to-payment" style="stroke:#181818;stroke-width:1.0;"/><polygon fill="#181818" points="508.43,842.5983,514.1011,834.546,509.4006,837.6934,506.2533,832.993,508.43,842.5983" style="stroke:#181818;stroke-width:1.0;"/></g><!--link ms to email--><g id="link_ms_email"><path d="M437.53,621.4083 C468.08,636.9483 503.52,657.4583 532,680.9183 C591.17,729.6483 641.9306,797.088 670.1506,837.778 " fill="none" id="ms-to-email" style="stroke:#181818;stroke-width:1.0;"/><polygon fill="#181818" points="673.57,842.7083,671.7278,833.0332,670.7205,838.5997,665.1541,837.5924,673.57,842.7083" style="stroke:#181818;stroke-width:1.0;"/></g><!--SRC=[RLDDQzj04BtlhnXqZWB5z6OCgXrA80KtAkJIosWrLZVLxehTKOqe_k_TBpjkd9FcwxsPDvfbnIF1ansKn16sLa_Ma67OAHmSQY5GidLGRMVFLfEh03t8ufoJ3teQxKAKagGd8Hn9HZC4wgfvQQ6Hqiw6A_Wh0EHevnwgsTU4dkjFEGgW39Cxe0mOabO7VadtmPZGB0PribE7tdXOhv_jpFHvjTaaiBnCNcqZ_y7PfCApKztCofey-K7ayWFKyrH7Al4Ut-mVuIio7N5969pK-v9s1I_KUSK4NsRvcpWL7gahKW0EAcgdRT41BICh2OttnFwd-SLwl8DNVmVI-_lS9gKI_7GZAOX1PSZ1CmrHKvxC5ITius4CkmmDRYjl5_GsrJSbdVNa_YX9Fb5g_o5PcsiALu-C7Vh_1EvABF-XBh0qixCEOTT-VmguozhhJLpKjNjUSFWcN-SjX56YTnPv7UiZ_YHEGfHZMhaUzkXuWHQnBNVsfdYFYux6tjaWrDjynbE9hjSbd-HTmNuSrQXi46_wmQc-d3UgCUueVWCWpb2UGnujN5Hu0XTRf963KxfT_4Gan3y0]--></g></svg>