<?xml version="1.0" encoding="us-ascii" standalone="no"?><svg xmlns="http://www.w3.org/2000/svg" xmlns:xlink="http://www.w3.org/1999/xlink" contentStyleType="text/css" height="600px" preserveAspectRatio="none" style="width:712px;height:600px;background:#FFFFFF;" version="1.1" viewBox="0 0 712 600" width="712px" zoomAndPan="magnify"><defs/><g><text fill="#000000" font-family="sans-serif" font-size="14" font-weight="bold" lengthAdjust="spacing" textLength="205" x="246.7284" y="23.5352">Logical Component Diagram</text><!--cluster 3rd Party SaaS--><g id="cluster_3rd Party SaaS"><path d="M317.7229,473.3767 C323.5578,463.4687 333.5119,462.703 340.3941,472.1501 C347.8712,460.2407 356.4875,457.7359 366.5109,469.3195 C374.5985,457.2006 383.6715,457.4232 390.8454,470.2121 C398.0195,458.7961 410.0981,457.3387 418.4112,468.8421 C423.1541,455.1728 435.0681,456.4028 442.5305,466.026 C448.2215,454.5194 459.903,454.516 466.4476,465.1019 C473.963,454.5686 486.8994,454.2709 493.4952,466.2088 C500.7559,454.379 509.824,454.9425 518.2917,464.8307 C526.4941,453.6443 534.4865,454.257 542.2496,465.3041 C551.4933,455.634 562.6874,456.3574 567.5304,470.0634 C574.347,459.138 582.0297,455.3381 591.2891,467.5556 C600.6149,456.3509 614.1051,457.3695 618.9702,472.2832 C624.9686,460.6122 635.4227,458.0193 643.4167,470.2413 C654.8699,457.1517 669.2148,461.5561 673,477.9383 C674.7788,476.9067 676.2744,477.4299 676.2575,479.7065 C698.2723,486.3439 705.4568,505.5798 686.6345,522.1917 C702.2981,543.7713 696.6598,567.7952 666,568.9183 C668.1213,568.885 669.0897,570.0546 668.2167,572.1045 C660.3374,584.6409 653.1547,581.9527 644.8755,572.5296 C637.0207,586.7099 625.6823,586.9344 616.0505,574.4508 C610.9394,585.5608 602.0929,585.1197 594.6306,577.0809 C585.6555,589.7918 575.3652,591.2371 565.6021,577.9612 C558.0387,590.1813 549.571,587.9761 541.8096,578.1751 C534.1044,589.6377 524.8852,590.6667 516.9092,578.4601 C509.2737,591.7031 499.673,593.6471 490.1973,580.3095 C482.801,591.0729 473.4743,589.0751 468.4506,577.9521 C461.3135,590.309 447.1517,590.7995 439.9901,577.9798 C432.2845,586.4847 422.9337,584.7239 418.1207,574.5865 C410.4782,586.9547 399.0245,589.8161 390.8802,575.0911 C383.1957,585.7016 371.9698,585.6443 366.5886,572.7142 C359.7409,583.1731 348.3487,585.0855 342.2447,571.947 C326.6655,587.2132 311.1162,584.4659 306,561.9183 C307.9036,560.2314 309.6368,560.7494 310.3858,563.1555 C291.471,552.7582 287.4373,535.6899 308.1444,523.0768 C284.7631,503.3544 287.9501,486.1503 313,470.9383 C315.723,469.2605 317.322,470.557 317.7229,473.3767 " fill="none" style="stroke:#181818;stroke-width:1.0;"/><text fill="#000000" font-family="sans-serif" font-size="14" font-weight="bold" lengthAdjust="spacing" textLength="103" x="438" y="489.4734">3rd Party SaaS</text></g><!--entity payment--><g id="elem_payment"><rect fill="#F1F1F1" height="62.9766" rx="2.5" ry="2.5" style="stroke:#181818;stroke-width:0.5;" width="169" x="313.5" y="497.9383"/><rect fill="#F1F1F1" height="10" style="stroke:#181818;stroke-width:0.5;" width="15" x="462.5" y="502.9383"/><rect fill="#F1F1F1" height="2" style="stroke:#181818;stroke-width:0.5;" width="4" x="460.5" y="504.9383"/><rect fill="#F1F1F1" height="2" style="stroke:#181818;stroke-width:0.5;" width="4" x="460.5" y="508.9383"/><text fill="#000000" font-family="sans-serif" font-size="14" font-style="italic" lengthAdjust="spacing" textLength="72" x="357" y="531.4734">&#171;Payment&#187;</text><text fill="#000000" font-family="sans-serif" font-size="14" lengthAdjust="spacing" textLength="129" x="328.5" y="547.9617">Payment Processor</text></g><!--entity email--><g id="elem_email"><rect fill="#F1F1F1" height="62.9766" rx="2.5" ry="2.5" style="stroke:#181818;stroke-width:0.5;" width="147" x="517.5" y="497.9383"/><rect fill="#F1F1F1" height="10" style="stroke:#181818;stroke-width:0.5;" width="15" x="644.5" y="502.9383"/><rect fill="#F1F1F1" height="2" style="stroke:#181818;stroke-width:0.5;" width="4" x="642.5" y="504.9383"/><rect fill="#F1F1F1" height="2" style="stroke:#181818;stroke-width:0.5;" width="4" x="642.5" y="508.9383"/><text fill="#000000" font-family="sans-serif" font-size="14" font-style="italic" lengthAdjust="spacing" textLength="51" x="560.5" y="531.4734">&#171;Email&#187;</text><text fill="#000000" font-family="sans-serif" font-size="14" lengthAdjust="spacing" textLength="107" x="532.5" y="547.9617">Twilio Sendgrid</text></g><!--entity customer--><g id="elem_customer"><ellipse cx="147" cy="51.4883" fill="#F1F1F1" rx="8" ry="8" style="stroke:#181818;stroke-width:0.5;"/><path d="M147,59.4883 L147,86.4883 M134,67.4883 L160,67.4883 M147,86.4883 L134,101.4883 M147,86.4883 L160,101.4883 " fill="none" style="stroke:#181818;stroke-width:0.5;"/><text fill="#000000" font-family="sans-serif" font-size="14" lengthAdjust="spacing" textLength="67" x="113.5" y="116.5234">Customer</text></g><!--entity emp--><g id="elem_emp"><ellipse cx="386" cy="51.4883" fill="#F1F1F1" rx="8" ry="8" style="stroke:#181818;stroke-width:0.5;"/><path d="M386,59.4883 L386,86.4883 M373,67.4883 L399,67.4883 M386,86.4883 L373,101.4883 M386,86.4883 L399,101.4883 " fill="none" style="stroke:#181818;stroke-width:0.5;"/><text fill="#000000" font-family="sans-serif" font-size="14" lengthAdjust="spacing" textLength="66" x="353" y="116.5234">Employee</text></g><!--entity website--><g id="elem_website"><rect fill="#F1F1F1" height="46.4883" rx="2.5" ry="2.5" style="stroke:#181818;stroke-width:0.5;" width="179" x="57.5" y="179.4783"/><rect fill="#F1F1F1" height="10" style="stroke:#181818;stroke-width:0.5;" width="15" x="216.5" y="184.4783"/><rect fill="#F1F1F1" height="2" style="stroke:#181818;stroke-width:0.5;" width="4" x="214.5" y="186.4783"/><rect fill="#F1F1F1" height="2" style="stroke:#181818;stroke-width:0.5;" width="4" x="214.5" y="190.4783"/><text fill="#000000" font-family="sans-serif" font-size="14" lengthAdjust="spacing" textLength="139" x="72.5" y="213.0134">eCommerce Website</text></g><!--entity admin--><g id="elem_admin"><rect fill="#F1F1F1" height="46.4883" rx="2.5" ry="2.5" style="stroke:#181818;stroke-width:0.5;" width="228" x="272" y="179.4783"/><rect fill="#F1F1F1" height="10" style="stroke:#181818;stroke-width:0.5;" width="15" x="480" y="184.4783"/><rect fill="#F1F1F1" height="2" style="stroke:#181818;stroke-width:0.5;" width="4" x="478" y="186.4783"/><rect fill="#F1F1F1" height="2" style="stroke:#181818;stroke-width:0.5;" width="4" x="478" y="190.4783"/><text fill="#000000" font-family="sans-serif" font-size="14" lengthAdjust="spacing" textLength="188" x="287" y="213.0134">eCommerce Admin Website</text></g><!--entity product--><g id="elem_product"><rect fill="#F1F1F1" height="46.4883" rx="2.5" ry="2.5" style="stroke:#181818;stroke-width:0.5;" width="145" x="198.5" y="285.9683"/><rect fill="#F1F1F1" height="10" style="stroke:#181818;stroke-width:0.5;" width="15" x="323.5" y="290.9683"/><rect fill="#F1F1F1" height="2" style="stroke:#181818;stroke-width:0.5;" width="4" x="321.5" y="292.9683"/><rect fill="#F1F1F1" height="2" style="stroke:#181818;stroke-width:0.5;" width="4" x="321.5" y="296.9683"/><text fill="#000000" font-family="sans-serif" font-size="14" lengthAdjust="spacing" textLength="105" x="213.5" y="319.5034">Product Service</text></g><!--entity orders--><g id="elem_orders"><rect fill="#F1F1F1" height="46.4883" rx="2.5" ry="2.5" style="stroke:#181818;stroke-width:0.5;" width="139" x="378.5" y="285.9683"/><rect fill="#F1F1F1" height="10" style="stroke:#181818;stroke-width:0.5;" width="15" x="497.5" y="290.9683"/><rect fill="#F1F1F1" height="2" style="stroke:#181818;stroke-width:0.5;" width="4" x="495.5" y="292.9683"/><rect fill="#F1F1F1" height="2" style="stroke:#181818;stroke-width:0.5;" width="4" x="495.5" y="296.9683"/><text fill="#000000" font-family="sans-serif" font-size="14" lengthAdjust="spacing" textLength="99" x="393.5" y="319.5034">Orders Service</text></g><!--entity inventory--><g id="elem_inventory"><rect fill="#F1F1F1" height="46.4883" rx="2.5" ry="2.5" style="stroke:#181818;stroke-width:0.5;" width="156" x="7" y="285.9683"/><rect fill="#F1F1F1" height="10" style="stroke:#181818;stroke-width:0.5;" width="15" x="143" y="290.9683"/><rect fill="#F1F1F1" height="2" style="stroke:#181818;stroke-width:0.5;" width="4" x="141" y="292.9683"/><rect fill="#F1F1F1" height="2" style="stroke:#181818;stroke-width:0.5;" width="4" x="141" y="296.9683"/><text fill="#000000" font-family="sans-serif" font-size="14" lengthAdjust="spacing" textLength="116" x="22" y="319.5034">Inventory Service</text></g><!--entity database--><g id="elem_database"><path d="M186.5,402.4583 C186.5,392.4583 271,392.4583 271,392.4583 C271,392.4583 355.5,392.4583 355.5,402.4583 L355.5,427.9466 C355.5,437.9466 271,437.9466 271,437.9466 C271,437.9466 186.5,437.9466 186.5,427.9466 L186.5,402.4583 " fill="#F1F1F1" style="stroke:#181818;stroke-width:0.5;"/><path d="M186.5,402.4583 C186.5,412.4583 271,412.4583 271,412.4583 C271,412.4583 355.5,412.4583 355.5,402.4583 " fill="none" style="stroke:#181818;stroke-width:0.5;"/><text fill="#000000" font-family="sans-serif" font-size="14" lengthAdjust="spacing" textLength="149" x="196.5" y="429.9934">eCommerce Database</text></g><!--link customer to website--><g id="link_customer_website"><path d="M147,119.7083 C147,139.1483 147,156.2583 147,172.9783 " fill="none" id="customer-to-website" style="stroke:#181818;stroke-width:1.0;"/><polygon fill="#181818" points="147,178.9783,151,169.9783,147,173.9783,143,169.9783,147,178.9783" style="stroke:#181818;stroke-width:1.0;"/></g><!--link emp to admin--><g id="link_emp_admin"><path d="M386,119.7083 C386,139.1483 386,156.2583 386,172.9783 " fill="none" id="emp-to-admin" style="stroke:#181818;stroke-width:1.0;"/><polygon fill="#181818" points="386,178.9783,390,169.9783,386,173.9783,382,169.9783,386,178.9783" style="stroke:#181818;stroke-width:1.0;"/></g><!--link website to product--><g id="link_website_product"><path d="M173.91,226.3983 C194.71,243.9183 218.7708,264.2031 239.5608,281.7131 " fill="none" id="website-to-product" style="stroke:#181818;stroke-width:1.0;"/><polygon fill="#181818" points="244.15,285.5783,239.843,276.7211,240.3257,282.3573,234.6895,282.84,244.15,285.5783" style="stroke:#181818;stroke-width:1.0;"/></g><!--link website to orders--><g id="link_website_orders"><path d="M212.31,226.3983 C262.71,243.8883 326.4515,266.0216 376.8915,283.5216 " fill="none" id="website-to-orders" style="stroke:#181818;stroke-width:1.0;"/><polygon fill="#181818" points="382.56,285.4883,375.3683,278.7592,377.8362,283.8494,372.7461,286.3173,382.56,285.4883" style="stroke:#181818;stroke-width:1.0;"/></g><!--link website to inventory--><g id="link_website_inventory"><path d="M133.55,226.3983 C123.15,243.9183 111.8818,262.9083 101.4918,280.4183 " fill="none" id="website-to-inventory" style="stroke:#181818;stroke-width:1.0;"/><polygon fill="#181818" points="98.43,285.5783,106.4627,279.8795,100.9815,281.2783,99.5827,275.7971,98.43,285.5783" style="stroke:#181818;stroke-width:1.0;"/></g><!--link product to database--><g id="link_product_database"><path d="M271,332.7683 C271,350.3383 271,368.5783 271,386.0383 " fill="none" id="product-to-database" style="stroke:#181818;stroke-width:1.0;"/><polygon fill="#181818" points="271,392.0383,275,383.0383,271,387.0383,267,383.0383,271,392.0383" style="stroke:#181818;stroke-width:1.0;"/></g><!--link orders to database--><g id="link_orders_database"><path d="M409.59,332.7683 C379.7,350.3383 343.6133,371.5391 313.8933,388.9991 " fill="none" id="orders-to-database" style="stroke:#181818;stroke-width:1.0;"/><polygon fill="#181818" points="308.72,392.0383,318.5061,390.9283,313.0311,389.5056,314.4538,384.0306,308.72,392.0383" style="stroke:#181818;stroke-width:1.0;"/></g><!--link inventory to database--><g id="link_inventory_database"><path d="M125.36,332.7683 C156.77,350.3383 194.8929,371.6503 226.1229,389.1103 " fill="none" id="inventory-to-database" style="stroke:#181818;stroke-width:1.0;"/><polygon fill="#181818" points="231.36,392.0383,225.4563,384.155,226.9958,389.5983,221.5524,391.1378,231.36,392.0383" style="stroke:#181818;stroke-width:1.0;"/></g><!--link orders to payment--><g id="link_orders_payment"><path d="M442.84,332.7383 C433.83,372.0483 416.5692,447.3596 406.3892,491.8196 " fill="none" id="orders-to-payment" style="stroke:#181818;stroke-width:1.0;"/><polygon fill="#181818" points="405.05,497.6683,410.9578,489.7881,406.166,492.7944,403.1596,488.0025,405.05,497.6683" style="stroke:#181818;stroke-width:1.0;"/></g><!--link orders to email--><g id="link_orders_email"><path d="M462.76,332.7383 C488.53,372.0483 538.4218,448.1896 567.5518,492.6496 " fill="none" id="orders-to-email" style="stroke:#181818;stroke-width:1.0;"/><polygon fill="#181818" points="570.84,497.6683,569.2534,487.9481,568.0998,493.486,562.5618,492.3324,570.84,497.6683" style="stroke:#181818;stroke-width:1.0;"/></g><!--link admin to product--><g id="link_admin_product"><path d="M361.05,226.3983 C341.76,243.9183 319.6216,264.0344 300.3416,281.5444 " fill="none" id="admin-to-product" style="stroke:#181818;stroke-width:1.0;"/><polygon fill="#181818" points="295.9,285.5783,305.2517,282.4886,299.6014,282.2167,299.8732,276.5664,295.9,285.5783" style="stroke:#181818;stroke-width:1.0;"/></g><!--link admin to inventory--><g id="link_admin_inventory"><path d="M320.69,226.3983 C270.29,243.8883 206.5485,266.0216 156.1085,283.5216 " fill="none" id="admin-to-inventory" style="stroke:#181818;stroke-width:1.0;"/><polygon fill="#181818" points="150.44,285.4883,160.2539,286.3173,155.1638,283.8494,157.6317,278.7592,150.44,285.4883" style="stroke:#181818;stroke-width:1.0;"/></g><!--link admin to orders--><g id="link_admin_orders"><path d="M399.45,226.3983 C409.85,243.9183 421.1182,262.9083 431.5082,280.4183 " fill="none" id="admin-to-orders" style="stroke:#181818;stroke-width:1.0;"/><polygon fill="#181818" points="434.57,285.5783,433.4173,275.7971,432.0185,281.2783,426.5373,279.8795,434.57,285.5783" style="stroke:#181818;stroke-width:1.0;"/></g><!--SRC=[RP91YyCW48Nl_eeXzvxsMW9BsyF2mXPQsFDKXo346DIqX6N_-qxK90fxKZ_Vw9kdGOUUuDDsMc8F9sj6Ez0GuAonSsY4G1ciW-Oq-M0DkGRGWyoBTVDYnjxEH76Jp2Y4t0vgY0zbhIJufeVN8QbUQVw_y5qPFLHoN4WflZgh9XdWHkwfPHADYPMoBwV8-Kfb8of57yEJH-lcIgTNAXG6VA2dqk8vioXT1TntRoS5pPjJS4KN-4J4MmC_0g0qZxDP9jo49EzjIdNCz7ZC-srRbzrVkjUMJGwgSrhbj57tN79PHYxuPG_vTU1mQBUS-LNYEWKfCeveZMrZxPfHgThZ4BaWugtrL5AphQR6ktQvFVLQiTWKVxtu3KgBEzdjx2ox5dy0]--></g></svg>