<?xml version="1.0" encoding="us-ascii" standalone="no"?><svg xmlns="http://www.w3.org/2000/svg" xmlns:xlink="http://www.w3.org/1999/xlink" contentStyleType="text/css" height="839px" preserveAspectRatio="none" style="width:387px;height:839px;background:#FFFFFF;" version="1.1" viewBox="0 0 387 839" width="387px" zoomAndPan="magnify"><defs/><g><text fill="#000000" font-family="sans-serif" font-size="14" font-weight="bold" lengthAdjust="spacing" textLength="146" x="113.8" y="23.5352">eCommerce Website</text><!--cluster Catalog--><g id="cluster_Catalog"><path d="M135.58,43.4883 L191.58,43.4883 A3.75,3.75 0 0 1 194.08,45.9883 L201.08,65.9766 L362.02,65.9766 A2.5,2.5 0 0 1 364.52,68.4766 L364.52,351.9883 A2.5,2.5 0 0 1 362.02,354.4883 L135.58,354.4883 A2.5,2.5 0 0 1 133.08,351.9883 L133.08,45.9883 A2.5,2.5 0 0 1 135.58,43.4883 " fill="none" style="stroke:#000000;stroke-width:1.5;"/><line style="stroke:#000000;stroke-width:1.5;" x1="133.08" x2="201.08" y1="65.9766" y2="65.9766"/><text fill="#000000" font-family="sans-serif" font-size="14" font-weight="bold" lengthAdjust="spacing" textLength="55" x="137.08" y="59.0234">Catalog</text></g><!--cluster Checkout--><g id="cluster_Checkout"><path d="M119.5,378.4883 L187.5,378.4883 A3.75,3.75 0 0 1 190,380.9883 L197,400.9766 L378.1,400.9766 A2.5,2.5 0 0 1 380.6,403.4766 L380.6,706.9883 A2.5,2.5 0 0 1 378.1,709.4883 L119.5,709.4883 A2.5,2.5 0 0 1 117,706.9883 L117,380.9883 A2.5,2.5 0 0 1 119.5,378.4883 " fill="none" style="stroke:#000000;stroke-width:1.5;"/><line style="stroke:#000000;stroke-width:1.5;" x1="117" x2="197" y1="400.9766" y2="400.9766"/><text fill="#000000" font-family="sans-serif" font-size="14" font-weight="bold" lengthAdjust="spacing" textLength="67" x="121" y="394.0234">Checkout</text></g><!--cluster Post-purchase--><g id="cluster_Post-purchase"><path d="M125.52,733.4883 L231.52,733.4883 A3.75,3.75 0 0 1 234.02,735.9883 L241.02,755.9766 L372.08,755.9766 A2.5,2.5 0 0 1 374.58,758.4766 L374.58,829.9883 A2.5,2.5 0 0 1 372.08,832.4883 L125.52,832.4883 A2.5,2.5 0 0 1 123.02,829.9883 L123.02,735.9883 A2.5,2.5 0 0 1 125.52,733.4883 " fill="none" style="stroke:#000000;stroke-width:1.5;"/><line style="stroke:#000000;stroke-width:1.5;" x1="123.02" x2="241.02" y1="755.9766" y2="755.9766"/><text fill="#000000" font-family="sans-serif" font-size="14" font-weight="bold" lengthAdjust="spacing" textLength="105" x="127.02" y="749.0234">Post-purchase</text></g><g id="elem_addItem"><ellipse cx="248.7984" cy="319.488" fill="#F1F1F1" rx="85.0984" ry="19.4197" style="stroke:#181818;stroke-width:0.5;"/><text fill="#000000" font-family="sans-serif" font-size="14" lengthAdjust="spacing" textLength="130" x="183.7984" y="322.779">4. Add Item to Cart</text></g><g id="elem_viewDetails"><ellipse cx="248.799" cy="245.4881" fill="#F1F1F1" rx="86.399" ry="19.6798" style="stroke:#181818;stroke-width:0.5;"/><text fill="#000000" font-family="sans-serif" font-size="14" lengthAdjust="spacing" textLength="133" x="182.299" y="248.7791">3. View Item Details</text></g><g id="elem_filter"><ellipse cx="248.7992" cy="174.4921" fill="#F1F1F1" rx="69.8192" ry="16.3638" style="stroke:#181818;stroke-width:0.5;"/><text fill="#000000" font-family="sans-serif" font-size="14" lengthAdjust="spacing" textLength="93" x="200.4053" y="178.2656">2. Filter Items</text></g><g id="elem_viewCatalog"><ellipse cx="248.8033" cy="100.4929" fill="#F1F1F1" rx="99.7233" ry="22.3447" style="stroke:#181818;stroke-width:0.5;"/><text fill="#000000" font-family="sans-serif" font-size="14" lengthAdjust="spacing" textLength="163" x="167.3033" y="103.784">1. View Product Catalog</text></g><g id="elem_confirm"><ellipse cx="248.8007" cy="670.4884" fill="#F1F1F1" rx="102.9007" ry="22.9801" style="stroke:#181818;stroke-width:0.5;"/><text fill="#000000" font-family="sans-serif" font-size="14" lengthAdjust="spacing" textLength="170" x="163.8007" y="673.7794">4. Confirm &amp; Place Order</text></g><g id="elem_enterPayment"><ellipse cx="248.7975" cy="591.4898" fill="#F1F1F1" rx="92.1075" ry="20.8215" style="stroke:#181818;stroke-width:0.5;"/><text fill="#000000" font-family="sans-serif" font-size="14" lengthAdjust="spacing" textLength="146" x="175.7975" y="594.7808">3. Enter Payment Info</text></g><g id="elem_enterShipping"><ellipse cx="248.8014" cy="510.4886" fill="#F1F1F1" rx="115.8014" ry="25.5603" style="stroke:#181818;stroke-width:0.5;"/><text fill="#000000" font-family="sans-serif" font-size="14" lengthAdjust="spacing" textLength="198" x="149.8014" y="513.7796">2. Enter Shipping/Billing Info</text></g><g id="elem_startCheckout"><ellipse cx="248.7985" cy="431.492" fill="#F1F1F1" rx="79.9685" ry="18.3937" style="stroke:#181818;stroke-width:0.5;"/><text fill="#000000" font-family="sans-serif" font-size="14" lengthAdjust="spacing" textLength="118" x="189.7985" y="434.783">1. Start Checkout</text></g><g id="elem_confirmation"><ellipse cx="248.7973" cy="792.4837" fill="#F1F1F1" rx="109.7773" ry="24.3555" style="stroke:#181818;stroke-width:0.5;"/><text fill="#000000" font-family="sans-serif" font-size="14" lengthAdjust="spacing" textLength="185" x="156.2973" y="795.7748">1. View Confirmation Email</text></g><!--entity customer--><g id="elem_customer"><ellipse cx="39.5" cy="441.7483" fill="#F1F1F1" rx="8" ry="8" style="stroke:#181818;stroke-width:0.5;"/><path d="M39.5,449.7483 L39.5,476.7483 M26.5,457.7483 L52.5,457.7483 M39.5,476.7483 L26.5,491.7483 M39.5,476.7483 L52.5,491.7483 " fill="none" style="stroke:#181818;stroke-width:0.5;"/><text fill="#000000" font-family="sans-serif" font-size="14" lengthAdjust="spacing" textLength="67" x="6" y="506.7834">Customer</text></g><!--link customer to viewCatalog--><g id="link_customer_viewCatalog"><path d="M43.53,433.0083 C50.43,355.1683 69.82,182.7883 109,140.4883 C122.38,126.0483 134.8847,118.5245 153.7247,112.5045 " fill="none" id="customer-to-viewCatalog" style="stroke:#181818;stroke-width:1.0;"/><polygon fill="#181818" points="159.44,110.6783,149.6495,109.6074,154.6772,112.2001,152.0845,117.2278,159.44,110.6783" style="stroke:#181818;stroke-width:1.0;"/></g><!--link customer to filter--><g id="link_customer_filter"><path d="M45.67,432.7883 C55.16,367.5383 77.33,239.7083 109,208.4883 C127.55,190.1983 148.3251,182.2054 173.3451,177.9454 " fill="none" id="customer-to-filter" style="stroke:#181818;stroke-width:1.0;"/><polygon fill="#181818" points="179.26,176.9383,169.7163,174.5057,174.3309,177.7775,171.0591,182.3922,179.26,176.9383" style="stroke:#181818;stroke-width:1.0;"/></g><!--link customer to addItem--><g id="link_customer_addItem"><path d="M71.86,433.0983 C82.87,420.9083 95.81,407.8983 109,397.4883 C140.25,372.8383 174.8688,353.8717 203.8988,339.6917 " fill="none" id="customer-to-addItem" style="stroke:#181818;stroke-width:1.0;"/><polygon fill="#181818" points="209.29,337.0583,199.4476,337.4142,204.7973,339.2528,202.9588,344.6025,209.29,337.0583" style="stroke:#181818;stroke-width:1.0;"/></g><!--link customer to startCheckout--><g id="link_customer_startCheckout"><path d="M73.35,465.1483 C103.6,459.3083 143.3785,451.6343 180.4085,444.4943 " fill="none" id="customer-to-startCheckout" style="stroke:#181818;stroke-width:1.0;"/><polygon fill="#181818" points="186.3,443.3583,176.7055,441.1346,181.3904,444.3049,178.2201,448.9899,186.3,443.3583" style="stroke:#181818;stroke-width:1.0;"/></g><!--link customer to enterShipping--><g id="link_customer_enterShipping"><path d="M73.35,477.6683 C96.64,482.0483 123.1636,487.038 153.7536,492.798 " fill="none" id="customer-to-enterShipping" style="stroke:#181818;stroke-width:1.0;"/><polygon fill="#181818" points="159.65,493.9083,151.5456,488.312,154.7363,492.9831,150.0652,496.1738,159.65,493.9083" style="stroke:#181818;stroke-width:1.0;"/></g><!--link customer to enterPayment--><g id="link_customer_enterPayment"><path d="M64.86,509.8983 C76.5,525.4683 91.68,542.3583 109,553.4883 C127.92,565.6383 144.8863,572.4261 166.4663,578.0861 " fill="none" id="customer-to-enterPayment" style="stroke:#181818;stroke-width:1.0;"/><polygon fill="#181818" points="172.27,579.6083,164.5792,573.4559,167.4336,578.3398,162.5497,581.1941,172.27,579.6083" style="stroke:#181818;stroke-width:1.0;"/></g><!--link customer to confirm--><g id="link_customer_confirm"><path d="M47.54,510.1383 C56.05,545.9983 73.85,598.3783 109,629.4883 C123.96,642.7283 137.2908,649.8844 156.4608,655.9644 " fill="none" id="customer-to-confirm" style="stroke:#181818;stroke-width:1.0;"/><polygon fill="#181818" points="162.18,657.7783,154.8104,651.2446,157.414,656.2667,152.3919,658.8702,162.18,657.7783" style="stroke:#181818;stroke-width:1.0;"/></g><!--link customer to confirmation--><g id="link_customer_confirmation"><path d="M42.95,509.9883 C47.94,560.5383 63.1,649.8683 109,709.4883 C130.32,737.1883 158.3102,755.0043 187.0102,768.6343 " fill="none" id="customer-to-confirmation" style="stroke:#181818;stroke-width:1.0;"/><polygon fill="#181818" points="192.43,771.2083,186.0162,763.7341,187.9135,769.0633,182.5843,770.9606,192.43,771.2083" style="stroke:#181818;stroke-width:1.0;"/></g><!--SRC=[RL51JiCm4Bpx5QiSK7je48Kp4eGYzKIaId0szYQnwiIHlG4XnD-n7GVggYVBCxEhcLbIf16mCdsFLY2yuRjJX8nfR0Z8W5LjHo2LHK7A38mLrUJ8U7K1t8587yP6BewyHIWgJboRje1lLjoLy20bx0dxiApYbkBOYaiPm3KhRajuLVWvQvwGkD9krdnuE05UjotXMMb26vL9qaJ4ipTfIssDd0J1dubbKGBMxEVKQeVYQ2OANW62syeCZR8zN46jkU_ZnSgKT2LcQXsKtlHk25vg_jNZGB0V6ZFBCE09ZjhjeZrqQXpLq5u_AgtzUpwqy77A1pgGhml-FGQX2zW2vM5gusWpJbPqt65AjDIIOl5mGjZrlj8iKyJZjkMUiDdSmqblEJ7NdcFfecShChyvbMM-GAKESoOPPXVH6ECN]--></g></svg>